<svg xmlns="http://www.w3.org/2000/svg" width="192" height="192" stroke="#00000000" stroke-linejoin="round" stroke-width="2.222" xmlns:v="https://vecta.io/nano"><path d="M170.71 35.661C137.449-5.533 76.833-11.989 35.64 21.272-5.536 54.533-11.992 115.15 21.269 156.342s93.877 47.65 135.07 14.372c41.193-33.261 47.65-93.878 14.371-135.07zm-13.073 10.547c27.569 34.132 22.269 83.882-11.864 111.43-34.114 27.569-83.881 22.269-111.43-11.846C6.774 111.66 12.074 61.91 46.207 34.342c34.132-27.551 83.881-22.269 111.43 11.864zm-13.464 10.885c-21.415-26.538-60.563-30.7-87.083-9.285-26.537 21.433-30.699 60.563-9.267 87.101 21.415 26.52 60.545 30.682 87.083 9.267 26.52-21.433 30.699-60.563 9.267-87.083z" fill="#939"/><path d="M171.62 36.781l-6.439-7.417C128.452-8.77 67.498-9.909 29.361 26.82a8.395 8.395 0 0 0 11.668 12.112C72.618 8.5 122.651 9.425 153.069 41.032c30.433 31.589 29.508 81.623-2.099 112.04a8.395 8.395 0 1 0 11.65 12.094c35.751-34.417 38.988-90.142 9-128.38zm-32.193 91.476a8.484 8.484 0 0 0-12.006-.142c-11.543 11.312-28.209 15.528-43.737 11.117s-27.462-16.791-31.34-32.461a44.94 44.94 0 0 1 12.646-43.31 8.484 8.484 0 0 0-11.721-12.308 61.97 61.97 0 0 0-17.413 59.674 61.95 61.95 0 0 0 43.168 44.715c21.362 6.083 44.377.231 60.243-15.296a8.484 8.484 0 0 0 .142-12.006z" fill="#fff" fill-opacity=".3"/></svg>