<?xml version="1.0" encoding="UTF-8"?>
<svg width="192" height="192" version="1.1" viewBox="0 0 192 192" xml:space="preserve" xmlns="http://www.w3.org/2000/svg"><defs><linearGradient id="linearGradient2" x1="31.808" x2="50.192" y1="50.192" y2="31.808" gradientUnits="userSpaceOnUse"><stop stop-color="#650d84" offset="0"/><stop stop-color="#a84ab0" offset="1"/></linearGradient><linearGradient id="linearGradient5" x1="34.99" x2="47.011" y1="47.011" y2="34.99" gradientUnits="userSpaceOnUse"><stop stop-color="#650d84" offset="0"/><stop stop-color="#a84ab0" offset="1"/></linearGradient><linearGradient id="linearGradient6" x1="34.77" x2="50.701" y1="47.23" y2="31.299" gradientUnits="userSpaceOnUse"><stop stop-color="#fff" stop-opacity=".3" offset="0"/><stop stop-color="#fff" stop-opacity="0" offset="1"/></linearGradient><linearGradient id="linearGradient8" x1="34.681" x2="45.174" y1="47.32" y2="36.826" gradientUnits="userSpaceOnUse"><stop stop-color="#fff" stop-opacity=".3" offset="0"/><stop stop-color="#fff" stop-opacity="0" offset="1"/></linearGradient></defs><g transform="matrix(7.3846 0 0 7.3846 -1.2347e-6 6.1499e-6)"><g transform="translate(-28 -28)"><circle cx="41" cy="41" r="8.5" fill="url(#linearGradient5)"/><ellipse cx="41" cy="41" rx="11.85" ry="11.85" fill="none" stroke="url(#linearGradient2)" stroke-linecap="round" stroke-linejoin="round" stroke-miterlimit="0" stroke-width="2.3"/></g><g transform="translate(-28 -28)" fill="none" stroke-linecap="round" stroke-linejoin="round" stroke-miterlimit="0" stroke-width="2.3"><path d="m46.197 46.197a7.3501 7.3501 0 0 1-10.395 0 7.3501 7.3501 0 0 1 0-10.395" stroke="url(#linearGradient8)"/><path d="m32.621 32.621a11.85 11.85 0 0 1 11.446-3.067 11.85 11.85 0 0 1 8.3792 8.3792 11.85 11.85 0 0 1-3.067 11.446" stroke="url(#linearGradient6)"/></g></g></svg>
